<svg xmlns="http://www.w3.org/2000/svg" width="63" height="51" viewBox="0 0 63 51">
  <g id="Group_374" data-name="Group 374" opacity="0.1">
    <circle id="Ellipse_436" data-name="Ellipse 436" cx="1.5" cy="1.5" r="1.5" transform="translate(12)" fill="#212936"/>
    <circle id="Ellipse_451" data-name="Ellipse 451" cx="1.5" cy="1.5" r="1.5" fill="#212936"/>
    <circle id="Ellipse_442" data-name="Ellipse 442" cx="1.5" cy="1.5" r="1.5" transform="translate(24)" fill="#212936"/>
    <circle id="Ellipse_457" data-name="Ellipse 457" cx="1.5" cy="1.5" r="1.5" transform="translate(36)" fill="#212936"/>
    <circle id="Ellipse_462" data-name="Ellipse 462" cx="1.5" cy="1.5" r="1.5" transform="translate(48)" fill="#212936"/>
    <circle id="Ellipse_467" data-name="Ellipse 467" cx="1.5" cy="1.5" r="1.5" transform="translate(60)" fill="#212936"/>
    <circle id="Ellipse_437" data-name="Ellipse 437" cx="1.5" cy="1.5" r="1.5" transform="translate(12 12)" fill="#212936"/>
    <circle id="Ellipse_452" data-name="Ellipse 452" cx="1.5" cy="1.5" r="1.5" transform="translate(0 12)" fill="#212936"/>
    <circle id="Ellipse_443" data-name="Ellipse 443" cx="1.5" cy="1.5" r="1.5" transform="translate(24 12)" fill="#212936"/>
    <circle id="Ellipse_458" data-name="Ellipse 458" cx="1.5" cy="1.5" r="1.5" transform="translate(36 12)" fill="#212936"/>
    <circle id="Ellipse_463" data-name="Ellipse 463" cx="1.5" cy="1.5" r="1.5" transform="translate(48 12)" fill="#212936"/>
    <circle id="Ellipse_468" data-name="Ellipse 468" cx="1.5" cy="1.5" r="1.5" transform="translate(60 12)" fill="#212936"/>
    <circle id="Ellipse_438" data-name="Ellipse 438" cx="1.5" cy="1.5" r="1.5" transform="translate(12 24)" fill="#212936"/>
    <circle id="Ellipse_453" data-name="Ellipse 453" cx="1.5" cy="1.5" r="1.5" transform="translate(0 24)" fill="#212936"/>
    <circle id="Ellipse_444" data-name="Ellipse 444" cx="1.5" cy="1.5" r="1.5" transform="translate(24 24)" fill="#212936"/>
    <circle id="Ellipse_459" data-name="Ellipse 459" cx="1.5" cy="1.5" r="1.5" transform="translate(36 24)" fill="#212936"/>
    <circle id="Ellipse_464" data-name="Ellipse 464" cx="1.5" cy="1.5" r="1.5" transform="translate(48 24)" fill="#212936"/>
    <circle id="Ellipse_469" data-name="Ellipse 469" cx="1.5" cy="1.5" r="1.5" transform="translate(60 24)" fill="#212936"/>
    <circle id="Ellipse_439" data-name="Ellipse 439" cx="1.5" cy="1.5" r="1.5" transform="translate(12 36)" fill="#212936"/>
    <circle id="Ellipse_454" data-name="Ellipse 454" cx="1.5" cy="1.5" r="1.5" transform="translate(0 36)" fill="#212936"/>
    <circle id="Ellipse_445" data-name="Ellipse 445" cx="1.5" cy="1.5" r="1.5" transform="translate(24 36)" fill="#212936"/>
    <circle id="Ellipse_460" data-name="Ellipse 460" cx="1.5" cy="1.5" r="1.5" transform="translate(36 36)" fill="#212936"/>
    <circle id="Ellipse_465" data-name="Ellipse 465" cx="1.5" cy="1.5" r="1.5" transform="translate(48 36)" fill="#212936"/>
    <circle id="Ellipse_470" data-name="Ellipse 470" cx="1.5" cy="1.5" r="1.5" transform="translate(60 36)" fill="#212936"/>
    <circle id="Ellipse_440" data-name="Ellipse 440" cx="1.5" cy="1.5" r="1.5" transform="translate(12 48)" fill="#212936"/>
    <circle id="Ellipse_455" data-name="Ellipse 455" cx="1.5" cy="1.5" r="1.5" transform="translate(0 48)" fill="#212936"/>
    <circle id="Ellipse_441" data-name="Ellipse 441" cx="1.5" cy="1.5" r="1.5" transform="translate(24 48)" fill="#212936"/>
    <circle id="Ellipse_461" data-name="Ellipse 461" cx="1.5" cy="1.5" r="1.5" transform="translate(36 48)" fill="#212936"/>
    <circle id="Ellipse_466" data-name="Ellipse 466" cx="1.5" cy="1.5" r="1.5" transform="translate(48 48)" fill="#212936"/>
    <circle id="Ellipse_471" data-name="Ellipse 471" cx="1.5" cy="1.5" r="1.5" transform="translate(60 48)" fill="#212936"/>
  </g>
</svg>
